<?xml version="1.0" encoding="utf-8"?>
<!-- Generator: Adobe Illustrator 17.1.0, SVG Export Plug-In . SVG Version: 6.00 Build 0)  -->
<!DOCTYPE svg PUBLIC "-//W3C//DTD SVG 1.1//EN" "http://www.w3.org/Graphics/SVG/1.1/DTD/svg11.dtd">
<svg version="1.1" id="Layer_1" xmlns="http://www.w3.org/2000/svg" xmlns:xlink="http://www.w3.org/1999/xlink" x="0px" y="0px"
	 viewBox="0 0 1000 1000" enable-background="new 0 0 1000 1000" xml:space="preserve">
<linearGradient id="SVGID_1_" gradientUnits="userSpaceOnUse" x1="468.0852" y1="501.5141" x2="918.3937" y2="501.5141">
	<stop  offset="0" style="stop-color:#BE1E2D"/>
	<stop  offset="1" style="stop-color:#662D91"/>
</linearGradient>
<path fill="url(#SVGID_1_)" d="M495.9,854.8c-23-18.1-32.5-44.5-25.6-70.1c5.2-19.2,17.1-34,31.8-46.1c20-16.5,41.2-31.6,62.3-46.7
	c60-43,119.7-86.4,175.6-134.7c33.6-29.1,63.9-61.5,88.9-98.5c26-38.3,43.6-80,44.9-126.9c1.4-54.2-19.9-98.3-65.3-128.8
	c-52.8-35.5-110.3-39.3-169.9-20.7c-36.8,11.5-68.6,31.6-96.1,58.6c-1.4,1.4-2.8,2.8-4.2,4.1c-0.3,0.3-0.6,0.4-2-0.1
	c7-8.9,13.5-18.3,21-26.7c37.3-42.4,84.6-64.8,140.7-69.2c39.5-3.1,77.7,2.4,113.7,18.7c69.6,31.7,111.5,92,106.3,171.8
	c-2.5,38.2-15,73.5-34.1,106.7c-29.5,51.3-68.9,93.9-113.2,132.5c-51.8,45.1-107.9,84.4-164.5,123c-25.5,17.4-51.2,34.4-76.1,52.5
	c-11.3,8.2-21.7,17.9-31.1,28.3c-18.7,20.8-20.1,43.4-5.8,67.3C493.8,851.3,494.6,852.6,495.9,854.8z"/>
<path fill="#AB2238" d="M252,552.4c-8.8,13.8-2.2,24.1,4.3,34.6c-4.5,2.7-8.8,5.3-13.6,8.1c-5.2-5-10.4-10.1-15.7-15.2
	c-33.4-32.1-65.5-65.4-92.2-103.5c-25.5-36.5-44.5-75.8-51.2-120.1c-9.1-60.1,7.1-112.1,52-154.2c31.6-29.6,69.8-45.1,112.1-51.4
	c39.3-5.8,78-3,115.3,11.4c41.6,16.1,73.8,44,98.5,80.8c0.2,0.3,0.2,0.7,0.5,1.9c-3.1-2.8-5.6-5.2-8.1-7.5
	c-39.4-35.9-84.8-59.1-138.2-64.3c-55.4-5.4-105.2,9-145.8,48.2c-31.4,30.3-44.7,68.5-43.1,111.8c1.8,49.4,21.7,92.2,49,132.2
	c20.9,30.6,46,57.7,71.9,84C249,550.6,250.8,551.5,252,552.4z"/>
<path fill="#AF253B" d="M487.7,154.1c-20.3,0-39.6,0-59.7,0c0-8.9-0.2-17.2,0.2-25.5c0-0.9,3.1-2.4,4.8-2.4
	c15.8-0.2,31.6-0.1,47.4-0.1c2.1,0,4.2,0,6.8,0c0-17.4,0-34.1,0-51.3c8.6,0,16.7,0,25.5,0c0,16.8,0,33.7,0,51.1
	c19.8,0,38.8,0,58.3,0c0,9.4,0,18.3,0,27.9c-19.1,0-38.3,0-57.9,0c0,53.3,0,105.7,0,158.7c-8.5,0-16.6,0-25.4,0
	C487.7,260.3,487.7,207.7,487.7,154.1z"/>
<linearGradient id="SVGID_2_" gradientUnits="userSpaceOnUse" x1="499.6793" y1="770.2159" x2="499.6793" y2="279.0141">
	<stop  offset="0" style="stop-color:#BE1E2D"/>
	<stop  offset="0.3793" style="stop-color:#92278F"/>
	<stop  offset="0.9852" style="stop-color:#262262"/>
</linearGradient>
<path fill="url(#SVGID_2_)" d="M724.8,293.8c-0.4-0.4-0.8-0.7-1.2-1.1c-4.7,2.9-9.5,5.8-14.2,8.7c-0.1-0.2-0.2-0.5-0.3-0.7
	c4.5-5.1,8.9-10.1,13.4-15.2c-0.4-0.4-0.8-0.7-1.2-1.1c-5.8,4.3-11.6,8.5-18.7,13.7c4.4-7,7.8-12.6,11.3-18.2
	c-0.5-0.3-0.9-0.6-1.4-0.9c-3.8,4.3-7.5,8.8-11.6,13c-4,4.1-8.2,8.4-15.2,8.6c4.2-14.3,4.3-15.2,3-17.6c-0.3,0.2-0.8,0.3-1,0.5
	c-5.5,11.1-11,22.3-16.5,33.4c-0.7,1.4-1.6,2.7-2.6,3.9c-5.8,6.3-11.5,12.7-17.5,18.9c-18,18.4-37.9,35.2-49.5,58.9
	c-0.5,1-1.3,2-2.2,2.8c-13.6,13.1-27.1,26.4-41,39.2c-8,7.4-19.9,10.3-24.7,21.6c-6.8-7.3-8.3-22.3-2.8-29.4
	c1.8-2.3,5.3-3.8,8.3-4.6c3.3-0.9,7-0.4,10.4-1c5.9-1,6.4-3.2,5.7-9c-0.7-6.3-3.8-12.5-1.1-19c1.5-3.5-1.1-4.5-3.7-6
	c-3.3-1.9-8-4.1-8.7-7c-1.7-7.3-6.9-11.8-10.7-17.6c-4.1-6.3-9.2-8.4-16-8.7c-1.6-0.1-3.1-0.3-4.6-0.6c-13.3-2.8-25.4,0.3-35.5,9.2
	c-7,6.1-13.3,13.2-19.3,20.4c-9.7,11.6-21.3,15.2-35.5,10.1c-1.5-0.5-3-0.9-4.5-1.3c-1.4-0.4-2.9-0.6-4.3-0.9
	c9.2,6.7,18.8,11.7,30.8,9.7c0,0.8,0.1,1.5,0.1,2.3c-5.8,2.2-11.7,4.4-18.6,7c9.4,8,18.5,16.5,28.3,23.9
	c8.7,6.5,18.1,12.1,27.5,17.7c1.6,1,5.5,0.7,6.7-0.5c3.3-3.3,5.7-7.5,8.8-11.8c-0.6,2.7-0.8,5.4-1.9,7.8
	c-3.9,8.7-10.7,10.2-18.2,4.6c-2.9-2.2-6.1-4.2-9.3-6c-30-16.1-54.3-38.4-72.9-66.9c-1.4-2.1-2.9-4.2-4.7-6
	c-14.5-14.8-29.1-29.4-43.7-44.1c-7.8-7.9-14.8-16.1-18.6-27.2c-3-8.8-8.9-16.6-13.9-25.6c-3.7,7.4,2.7,12.3,2.8,19.1
	c-13.2-2.7-18.8-14-27.2-21.8c-0.4,0.3-0.7,0.6-1.1,0.9c2.8,4.9,5.6,9.8,8.5,14.7c-0.3,0.3-0.6,0.6-0.9,0.8
	c-5.2-3.9-10.4-7.9-15.6-11.8c-0.5,0.5-1,1.1-1.5,1.6c4.3,4.8,8.7,9.5,13,14.3c-0.2,0.3-0.5,0.6-0.7,0.8c-4.5-2.9-9-5.8-13.5-8.7
	c-0.4,0.5-0.8,1-1.2,1.5c5.2,5.3,10.4,10.6,15.6,15.9c-0.1,0.2-0.3,0.5-0.4,0.7c-4.2-2.2-8.4-4.4-12.6-6.6c-0.3,0.5-0.5,1-0.8,1.4
	c9.9,8.7,20.4,16.9,33.1,21c6.8,2.2,11.7,5.6,15.6,11.3c11.3,16.6,22.4,33.4,34.4,49.5c9.4,12.6,20,24.3,30.5,36.1
	c17,19.1,34.4,37.7,51.5,56.7c6,6.6,13.1,12.9,16.9,20.7c11.4,23.5,22.3,47.3,31.7,71.6c6.8,17.5,6.7,35.6-5,52
	c-4.6,6.5-9.2,13.1-13.4,19.9c-10.2,16.4-17.8,33.9-18.4,53.6c-0.1,2.1,1.2,4.7,2.6,6.4c3.1,3.7,6.8,6.9,10.2,10.4
	c-0.3,0.4-0.7,0.8-1,1.2c-2.5-1.4-5-2.7-7.4-4.3c-8.9-5.6-17.6-11.6-26.8-16.8c-7.4-4.2-12.4-2.5-16.3,4.2c1.1,0.8,2,1.8,3.2,2.4
	c11.5,5.7,23,11.3,34.6,16.9c4.8,2.3,9.5,5.8,14.9,1.7c5.5,8.5-0.4,13.3-6.7,19.3c2,1.2,3.7,1.9,4.9,3.1c0.9,0.9,1.3,2.4,1.9,3.6
	c-1.4-0.1-3,0.2-4.1-0.3c-3.1-1.6-6-3.5-9-5.3c-3,5,0.2,14,10.5,30.6c12.5-21.6,28.5-39.2,48.4-53.4c20.5-14.6,40.9-29.5,61.4-44.1
	c2.7-1.9,4.1-3.5,2.9-7.1c-2.2-6.9-3.5-14-5.6-20.9c-5.7-18.7-9-37.7-7.4-57.2c1.5-17.8,2.6-35.7,13.8-51.3
	c7.3-10.1,6.1-20.9-1.6-30.9c-2.6-3.4-5-7-7.4-10.6c-3.7-5.5-3.3-11.2,0-16.6c1.8-3,4.4-5.5,6.6-8.2c11.9-14.7,24-29.3,35.6-44.1
	c4.3-5.5,7.5-11.9,11.8-17.5c9-11.5,18.8-22.4,27.4-34.2c9.4-12.9,17.6-26.7,26.8-39.9c2.1-3,5.5-6.2,8.9-7
	c14.1-3.3,23.9-13.5,35.4-21.1c0.6-0.4,0.9-1.4,2.4-3.5c-5.2,2.4-8.8,4.2-13.7,6.5C716,303.3,720.4,298.5,724.8,293.8z"/>
<path fill="#BC256A" d="M553.7,748.4c-16.3,11.7-32.9,23-46.3,38.3c-18.5,21.1-19.1,46.9-0.8,66.5c14.8,15.9,32.2,28.8,50.2,41
	c9.1-20.2,30-146.6,27.2-166.1C573.4,735.2,563.3,741.5,553.7,748.4z"/>
<linearGradient id="SVGID_3_" gradientUnits="userSpaceOnUse" x1="347.4337" y1="494.3583" x2="454.1766" y2="494.3583">
	<stop  offset="0" style="stop-color:#BE1E2D"/>
	<stop  offset="0.3793" style="stop-color:#92278F"/>
	<stop  offset="0.9852" style="stop-color:#262262"/>
</linearGradient>
<path fill="url(#SVGID_3_)" d="M347.4,484c7.4,6.2,10.1,5.7,16.3,0.3c3.5-3.1,8.3-5.1,12.8-6.6c8.6-2.8,15.1-7.5,18.8-16.1
	c2.2-5,5.7-9.5,8.6-14.3c10.9,8.5,47.7,47.9,50.2,53.9c-2.2,0.7-4.4,1.5-6.6,2c-9.6,2.3-15.9,7.8-18.4,17.5c-1.8,7-5,13.5-11.9,16.6
	c-5,2.2-10.6,2.9-16,4.3c-0.2-0.6-0.4-1.1-0.5-1.7c0.9-0.4,1.7-1,2.6-1.1c9.1-1.5,13.1-7.3,14.7-15.9c1.3-6.8,3.2-13.4,4.8-20.1
	c-7.9,0.9-13.5,6.1-17.9,13.1c-2.1,3.3-3.7,6.9-6,10.1c-5.4,7.7-14.1,10.3-25.1,6.5c13.3-0.3,16-8.5,17.5-17.9
	c1.6-9.6,5.6-17.8,14.4-23.1c-0.2-0.4-0.4-0.9-0.7-1.3c-7.4,2.1-16.2,2.5-21.8,6.9c-5.6,4.4-8.1,12.9-12,19.7
	c0.4-4.3,0.6-8.6,1.2-12.8c1.5-9.9,6.9-16.4,16.9-18.6c11.7-2.6,19.3-9.6,21.9-22c-2.2,1.8-4.7,3.4-6.6,5.5
	c-7.8,8.6-17.9,11.6-28.9,13.3c-4.4,0.7-8.7,3.8-12.4,6.7C357.5,493.3,351.1,492.1,347.4,484z"/>
<path fill="#AB2238" d="M323.3,184c-23,0.5-45.7,3.2-67.5,10.3c-59,19.4-97.6,57.9-110.1,119.9c-2,10-2.1,20.4-3.2,31.2
	C127.2,250.8,211.2,165.3,323.3,184z"/>
<linearGradient id="SVGID_4_" gradientUnits="userSpaceOnUse" x1="677.2992" y1="265.798" x2="859.2413" y2="265.798">
	<stop  offset="0" style="stop-color:#BE1E2D"/>
	<stop  offset="1" style="stop-color:#662D91"/>
</linearGradient>
<path fill="url(#SVGID_4_)" d="M677.3,183.8c45.2-6.7,87.6,0.4,124.8,28.2c39.8,29.8,58.9,70.2,57,120.1c-0.2,6-0.9,12-1.8,17.9
	c0.2-22.4-2.2-44.3-10.8-65.1c-16.5-39.6-44.9-67.3-84.2-84.3C735.1,188.9,706.6,184.7,677.3,183.8z"/>
<path fill="#AB2238" d="M362.4,660.6c2.5,0.7,4.5,0.7,5.8,1.7c3,2.1,4.5,5.5,0.6,7.4c-5.4,2.7-5.1,6.4-3.3,11.7
	c-7.4-0.6-9.6-6.8-14.5-10.3c2.9-3.3,5.6-6.3,8.7-9.8c-12.7-8.5-25.3-16.9-37.9-25.3c5.4-7.1,9.1-8,15.6-3.5
	c8.8,6.1,17.3,12.7,26.1,18.8C368.4,654.8,365.4,657.4,362.4,660.6z"/>
<path fill="#AB2238" d="M297.3,636.2c-4.9,6.7-11.3,8.2-16.7,3.2c-9.5-8.9-18.7-18.2-27.5-27.8c-4.6-5-1.1-14.1,5.5-14.4
	c2.2-0.1,6.9,6.3,6.4,7c-2.3,3.5,0.1,4.7,1.8,6.2c9,7.7,18.1,15.2,27.2,22.8C295.1,634.1,296,635.1,297.3,636.2z"/>
<path fill="#AB2238" d="M307.6,624.2c-6.2-6.5-12.2-12.9-18.2-19.2c-2.4-2.5-5-4.9-7.5-7.4c-3.2-3.3-5.9-4.7-8,1
	c-0.4,1.1-1.7,2-3.1,3.6c-2.4-3.6-4.5-6.7-6.6-9.8c0.3-0.4,0.7-0.8,1-1.3c2.5,1.4,5,2.9,7.5,4.3c-4.1-5.7,0.3-8.4,3.9-11.1
	c4.2-3.1,7.1-0.6,10.1,2.3c7.5,7.4,15.2,14.6,22.8,21.9C316,614.8,315.7,617.6,307.6,624.2z"/>
<path fill="#AB2238" d="M354.2,680.1c-6,7-9.1,8.1-14.9,3.7c-10-7.5-19.6-15.5-29-23.7c-1.8-1.5-2.7-4.8-2.7-7.3c0-2,1.4-4.5,3-5.7
	c0.8-0.6,3.7,1,5.2,2.2c11.2,9,22.4,18.1,33.5,27.2C350.9,677.7,352.5,678.8,354.2,680.1z"/>
<path fill="#AB2238" d="M447.8,737c-2.4,7.2-7.4,9.8-12.8,6.6c-9.2-5.5-18.2-11.3-26.8-17.5c-5.5-4-5.1-7.9,0.8-13.6
	c6.6,5.8,13.1,11.8,19.9,17.5c1.3,1.1,3.5,1.2,5.2,1.9C438.7,733.5,443.3,735.2,447.8,737z"/>
<path fill="#AB2238" d="M294.9,618.4c1.6,0.9,2.8,1.5,3.8,2.3c9.5,8,19.1,15.9,28.5,24.1c1.3,1.1,1.6,3.5,2.4,5.2
	c-2.1,0.3-4.9,1.6-6.2,0.7c-10.8-7.8-21.4-16-31.9-24.2c-0.9-0.7-1.7-3.1-1.2-3.9C291.4,621,293.3,619.9,294.9,618.4z"/>
<linearGradient id="SVGID_5_" gradientUnits="userSpaceOnUse" x1="350.7974" y1="453.9059" x2="400.3464" y2="453.9059">
	<stop  offset="0" style="stop-color:#BE1E2D"/>
	<stop  offset="0.3793" style="stop-color:#92278F"/>
	<stop  offset="0.9852" style="stop-color:#262262"/>
</linearGradient>
<path fill="url(#SVGID_5_)" d="M394.4,434.3c2.6,3.1,4.1,5.1,5.9,7.3c-9.2,4.9-13.7,13.2-18,21.8c-5.1,10.4-21.6,13.7-31.6,5.7
	c8,2.3,14.5,0.6,20.7-3.1c6.3-3.8,9.8-9.6,12.9-16.1C386.8,444.5,390.7,439.9,394.4,434.3z"/>
<path fill="#AB2238" d="M426.9,710.3c-2.4,5.4-5.2,7.7-10.2,4.5c-6.9-4.3-13.9-8.4-20.7-13c-1.1-0.7-2-4.2-1.6-4.5
	c1.6-1.2,4.3-2.7,5.6-2.1C409,700,417.9,705.2,426.9,710.3z"/>
<path fill="#AB2238" d="M269.9,574.2c-2.2,1.6-5.9,4.4-9.8,7.3c-6.2-7.3-9.7-15.5-7.2-24.5C258.3,562.5,264.1,568.3,269.9,574.2z"/>
<path fill="#AB2238" d="M464.6,728.1c-2.8,3-4.6,5-6.8,7.3c-3.6-2.3-6.9-4.6-10.4-6.7c-3-1.8-3.1-4.2-1.1-6.2
	c1.3-1.3,4.2-2.5,5.6-1.9C456,722.5,459.8,725.2,464.6,728.1z"/>
<path fill="#AB2238" d="M366.9,723.8c-5.3,10.6-10.5,21.2-15.9,31.7c-0.3,0.7-1.9,0.7-2.9,1.1c-0.3-1.1-1.2-2.6-0.8-3.3
	c5.9-10.2,12-20.2,18-30.3C365.9,723.3,366.4,723.6,366.9,723.8z"/>
<path fill="#AB2238" d="M393.8,736.8c3.3,11.1,6.7,22.2,9.9,33.3c0.2,0.8-0.7,1.9-1.1,2.8c-1-0.6-2.7-1-2.9-1.7
	c-2.7-11.3-5.2-22.6-7.7-33.9C392.5,737.1,393.1,736.9,393.8,736.8z"/>
<path fill="#AB2238" d="M298.9,704.7c11.1-4,21.2-7.6,31.4-11.3C319.9,702.7,302.9,708.8,298.9,704.7z"/>
<path fill="#582352" d="M446.3,528.5c-6-4.8-7.6-11.3-4.7-17.1c2.7-5.3,10-9.4,15.9-7.8C447.5,509.2,439.3,515.4,446.3,528.5z"/>
<path fill="#AB2238" d="M357.1,594.5c2,11.1,4,22.2,6,33.3c-3.7-10.8-7.8-21.5-9.2-32.8C354.9,594.9,356,594.7,357.1,594.5z"/>
<path fill="#AB2238" d="M391.8,625.9c-2.3,9.1-4.7,18.2-7,27.2c-0.8-0.2-1.6-0.4-2.5-0.6c2.1-9.1,4.2-18.3,6.4-27.4
	C389.7,625.4,390.7,625.7,391.8,625.9z"/>
<path fill="#AB2238" d="M402.2,669.7c6.4-4.6,12.8-9.3,19.4-13.7c0.9-0.6,2.6-0.2,4-0.2c-0.7,1.1-1.1,2.7-2.1,3.4
	c-6.7,4.2-13.5,8.1-20.2,12.1C402.9,670.7,402.6,670.2,402.2,669.7z"/>
<path fill="#AB2238" d="M337.5,717.1c-1-4.2,4-8.9,12.3-12.6C345.7,708.8,341.9,712.7,337.5,717.1z"/>
</svg>
